<?xml version="1.0" encoding="utf-8"?>
<!-- Generator: Adobe Illustrator 15.0.2, SVG Export Plug-In . SVG Version: 6.00 Build 0)  -->
<!DOCTYPE svg PUBLIC "-//W3C//DTD SVG 1.1//EN" "http://www.w3.org/Graphics/SVG/1.1/DTD/svg11.dtd">
<svg version="1.1" id="Layer_1" xmlns="http://www.w3.org/2000/svg" xmlns:xlink="http://www.w3.org/1999/xlink" x="0px" y="0px"
	 width="512px" height="679.725px" viewBox="0 0 512 679.725" enable-background="new 0 0 512 679.725" xml:space="preserve">
<path d="M0,414.896h52.966v211.862h335.448V414.896h52.965v264.828H0V414.896z M353.104,591.448H88.275v-52.966h264.828V591.448z
	 M349.414,508.275L85.225,489.793l3.698-52.827l264.181,18.482L349.414,508.275z M353.173,436.725L97.379,368.173l13.707-51.147
	l255.811,68.544L353.173,436.725z M367.931,362.862L138.586,230.448l26.483-45.871l229.345,132.414L367.931,362.862z
	 M404.225,306.595L248.561,92.345l42.854-31.129l155.655,214.25L404.225,306.595z M459.431,269.311L427.155,6.457L479.725,0
	L512,262.854L459.431,269.311z"/>
</svg>
